M48
;DRILL file {KiCad (5.0.2)-1} date 31-Jan-20 21:18:21
;FORMAT={-:-/ absolute / inch / decimal}
FMAT,2
INCH,TZ
T1C0.0315
T2C0.0394
T3C0.0433
T4C0.1260
%
G90
G05
T1
X4.0031Y-3.1
X4.2Y-3.1
X5.45Y-2.6516
X5.45Y-2.75
X4.95Y-2.6516
X4.95Y-2.75
X4.0031Y-3.
X4.2Y-3.
X4.4Y-2.8
X4.4Y-2.9
X4.4Y-3.
X4.4Y-3.1
X4.7Y-2.8
X4.7Y-2.9
X4.7Y-3.
X4.7Y-3.1
X4.0031Y-2.9
X4.2Y-2.9
T2
X5.45Y-3.
X4.95Y-2.95
X4.95Y-3.1075
X3.8Y-3.
X3.8Y-3.1
X5.45Y-3.1
T3
X5.2Y-2.7
X5.2Y-3.1
T4
X5.45Y-3.4
X3.8Y-2.7
T0
M30
