G04 #@! TF.GenerationSoftware,KiCad,Pcbnew,(5.0.2)-1*
G04 #@! TF.CreationDate,2020-01-31T21:18:01-08:00*
G04 #@! TF.ProjectId,Sienc2020,5369656e-6332-4303-9230-2e6b69636164,rev?*
G04 #@! TF.SameCoordinates,Original*
G04 #@! TF.FileFunction,Soldermask,Bot*
G04 #@! TF.FilePolarity,Negative*
%FSLAX46Y46*%
G04 Gerber Fmt 4.6, Leading zero omitted, Abs format (unit mm)*
G04 Created by KiCad (PCBNEW (5.0.2)-1) date 31-Jan-20 21:18:01*
%MOMM*%
%LPD*%
G01*
G04 APERTURE LIST*
%ADD10C,0.100000*%
G04 APERTURE END LIST*
D10*
G36*
X138805256Y-84751298D02*
X138911579Y-84772447D01*
X139212042Y-84896903D01*
X139478852Y-85075180D01*
X139482454Y-85077587D01*
X139712413Y-85307546D01*
X139893098Y-85577960D01*
X140017553Y-85878422D01*
X140081000Y-86197389D01*
X140081000Y-86522611D01*
X140017553Y-86841578D01*
X139893098Y-87142040D01*
X139712413Y-87412454D01*
X139482454Y-87642413D01*
X139482451Y-87642415D01*
X139212042Y-87823097D01*
X138911579Y-87947553D01*
X138805256Y-87968702D01*
X138592611Y-88011000D01*
X138267389Y-88011000D01*
X138054744Y-87968702D01*
X137948421Y-87947553D01*
X137647958Y-87823097D01*
X137377549Y-87642415D01*
X137377546Y-87642413D01*
X137147587Y-87412454D01*
X136966902Y-87142040D01*
X136842447Y-86841578D01*
X136779000Y-86522611D01*
X136779000Y-86197389D01*
X136842447Y-85878422D01*
X136966902Y-85577960D01*
X137147587Y-85307546D01*
X137377546Y-85077587D01*
X137381148Y-85075180D01*
X137647958Y-84896903D01*
X137948421Y-84772447D01*
X138054744Y-84751298D01*
X138267389Y-84709000D01*
X138592611Y-84709000D01*
X138805256Y-84751298D01*
X138805256Y-84751298D01*
G37*
G36*
X126036565Y-77919389D02*
X126227834Y-77998615D01*
X126399976Y-78113637D01*
X126546363Y-78260024D01*
X126661385Y-78432166D01*
X126740611Y-78623435D01*
X126781000Y-78826484D01*
X126781000Y-79033516D01*
X126740611Y-79236565D01*
X126661385Y-79427834D01*
X126546363Y-79599976D01*
X126399976Y-79746363D01*
X126227834Y-79861385D01*
X126036565Y-79940611D01*
X125833516Y-79981000D01*
X125626484Y-79981000D01*
X125423435Y-79940611D01*
X125232166Y-79861385D01*
X125060024Y-79746363D01*
X124913637Y-79599976D01*
X124798615Y-79427834D01*
X124719389Y-79236565D01*
X124679000Y-79033516D01*
X124679000Y-78826484D01*
X124719389Y-78623435D01*
X124798615Y-78432166D01*
X124913637Y-78260024D01*
X125060024Y-78113637D01*
X125232166Y-77998615D01*
X125423435Y-77919389D01*
X125626484Y-77879000D01*
X125833516Y-77879000D01*
X126036565Y-77919389D01*
X126036565Y-77919389D01*
G37*
G36*
X132204180Y-77595662D02*
X132305635Y-77605654D01*
X132522600Y-77671470D01*
X132522602Y-77671471D01*
X132522605Y-77671472D01*
X132722556Y-77778347D01*
X132897818Y-77922182D01*
X133041653Y-78097444D01*
X133148528Y-78297395D01*
X133148529Y-78297398D01*
X133148530Y-78297400D01*
X133214346Y-78514365D01*
X133236569Y-78740000D01*
X133214346Y-78965635D01*
X133160512Y-79143100D01*
X133148528Y-79182605D01*
X133041653Y-79382556D01*
X132897818Y-79557818D01*
X132722556Y-79701653D01*
X132522605Y-79808528D01*
X132522602Y-79808529D01*
X132522600Y-79808530D01*
X132305635Y-79874346D01*
X132204180Y-79884338D01*
X132136545Y-79891000D01*
X132023455Y-79891000D01*
X131955820Y-79884338D01*
X131854365Y-79874346D01*
X131637400Y-79808530D01*
X131637398Y-79808529D01*
X131637395Y-79808528D01*
X131437444Y-79701653D01*
X131262182Y-79557818D01*
X131118347Y-79382556D01*
X131011472Y-79182605D01*
X130999488Y-79143100D01*
X130945654Y-78965635D01*
X130923431Y-78740000D01*
X130945654Y-78514365D01*
X131011470Y-78297400D01*
X131011471Y-78297398D01*
X131011472Y-78297395D01*
X131118347Y-78097444D01*
X131262182Y-77922182D01*
X131437444Y-77778347D01*
X131637395Y-77671472D01*
X131637398Y-77671471D01*
X131637400Y-77671470D01*
X131854365Y-77605654D01*
X131955820Y-77595662D01*
X132023455Y-77589000D01*
X132136545Y-77589000D01*
X132204180Y-77595662D01*
X132204180Y-77595662D01*
G37*
G36*
X138540443Y-77845519D02*
X138606627Y-77852037D01*
X138695512Y-77879000D01*
X138776467Y-77903557D01*
X138863311Y-77949977D01*
X138932991Y-77987222D01*
X138968729Y-78016552D01*
X139070186Y-78099814D01*
X139150369Y-78197519D01*
X139182778Y-78237009D01*
X139182779Y-78237011D01*
X139266443Y-78393533D01*
X139278162Y-78432165D01*
X139317963Y-78563373D01*
X139335359Y-78740000D01*
X139317963Y-78916627D01*
X139296243Y-78988228D01*
X139266443Y-79086467D01*
X139215058Y-79182600D01*
X139182778Y-79242991D01*
X139153448Y-79278729D01*
X139070186Y-79380186D01*
X138968729Y-79463448D01*
X138932991Y-79492778D01*
X138932989Y-79492779D01*
X138776467Y-79576443D01*
X138769069Y-79578687D01*
X138606627Y-79627963D01*
X138540442Y-79634482D01*
X138474260Y-79641000D01*
X138385740Y-79641000D01*
X138319558Y-79634482D01*
X138253373Y-79627963D01*
X138090931Y-79578687D01*
X138083533Y-79576443D01*
X137927011Y-79492779D01*
X137927009Y-79492778D01*
X137891271Y-79463448D01*
X137789814Y-79380186D01*
X137706552Y-79278729D01*
X137677222Y-79242991D01*
X137644942Y-79182600D01*
X137593557Y-79086467D01*
X137563757Y-78988228D01*
X137542037Y-78916627D01*
X137524641Y-78740000D01*
X137542037Y-78563373D01*
X137581838Y-78432165D01*
X137593557Y-78393533D01*
X137677221Y-78237011D01*
X137677222Y-78237009D01*
X137709631Y-78197519D01*
X137789814Y-78099814D01*
X137891271Y-78016552D01*
X137927009Y-77987222D01*
X137996689Y-77949977D01*
X138083533Y-77903557D01*
X138164488Y-77879000D01*
X138253373Y-77852037D01*
X138319557Y-77845519D01*
X138385740Y-77839000D01*
X138474260Y-77839000D01*
X138540443Y-77845519D01*
X138540443Y-77845519D01*
G37*
G36*
X96630443Y-77845519D02*
X96696627Y-77852037D01*
X96785512Y-77879000D01*
X96866467Y-77903557D01*
X96953311Y-77949977D01*
X97022991Y-77987222D01*
X97058729Y-78016552D01*
X97160186Y-78099814D01*
X97240369Y-78197519D01*
X97272778Y-78237009D01*
X97272779Y-78237011D01*
X97356443Y-78393533D01*
X97368162Y-78432165D01*
X97407963Y-78563373D01*
X97425359Y-78740000D01*
X97407963Y-78916627D01*
X97386243Y-78988228D01*
X97356443Y-79086467D01*
X97305058Y-79182600D01*
X97272778Y-79242991D01*
X97243448Y-79278729D01*
X97160186Y-79380186D01*
X97058729Y-79463448D01*
X97022991Y-79492778D01*
X97022989Y-79492779D01*
X96866467Y-79576443D01*
X96859069Y-79578687D01*
X96696627Y-79627963D01*
X96630442Y-79634482D01*
X96564260Y-79641000D01*
X96475740Y-79641000D01*
X96409558Y-79634482D01*
X96343373Y-79627963D01*
X96180931Y-79578687D01*
X96173533Y-79576443D01*
X96017011Y-79492779D01*
X96017009Y-79492778D01*
X95981271Y-79463448D01*
X95879814Y-79380186D01*
X95796552Y-79278729D01*
X95767222Y-79242991D01*
X95734942Y-79182600D01*
X95683557Y-79086467D01*
X95653757Y-78988228D01*
X95632037Y-78916627D01*
X95614641Y-78740000D01*
X95632037Y-78563373D01*
X95671838Y-78432165D01*
X95683557Y-78393533D01*
X95767221Y-78237011D01*
X95767222Y-78237009D01*
X95799631Y-78197519D01*
X95879814Y-78099814D01*
X95981271Y-78016552D01*
X96017009Y-77987222D01*
X96086689Y-77949977D01*
X96173533Y-77903557D01*
X96254488Y-77879000D01*
X96343373Y-77852037D01*
X96409557Y-77845519D01*
X96475740Y-77839000D01*
X96564260Y-77839000D01*
X96630443Y-77845519D01*
X96630443Y-77845519D01*
G37*
G36*
X101928228Y-77921703D02*
X102083100Y-77985853D01*
X102222481Y-78078985D01*
X102341015Y-78197519D01*
X102434147Y-78336900D01*
X102498297Y-78491772D01*
X102531000Y-78656184D01*
X102531000Y-78823816D01*
X102498297Y-78988228D01*
X102434147Y-79143100D01*
X102341015Y-79282481D01*
X102222481Y-79401015D01*
X102083100Y-79494147D01*
X101928228Y-79558297D01*
X101763816Y-79591000D01*
X101596184Y-79591000D01*
X101431772Y-79558297D01*
X101276900Y-79494147D01*
X101137519Y-79401015D01*
X101018985Y-79282481D01*
X100925853Y-79143100D01*
X100861703Y-78988228D01*
X100829000Y-78823816D01*
X100829000Y-78656184D01*
X100861703Y-78491772D01*
X100925853Y-78336900D01*
X101018985Y-78197519D01*
X101137519Y-78078985D01*
X101276900Y-77985853D01*
X101431772Y-77921703D01*
X101596184Y-77889000D01*
X101763816Y-77889000D01*
X101928228Y-77921703D01*
X101928228Y-77921703D01*
G37*
G36*
X119546821Y-77901313D02*
X119546824Y-77901314D01*
X119546825Y-77901314D01*
X119707239Y-77949975D01*
X119707241Y-77949976D01*
X119707244Y-77949977D01*
X119855078Y-78028995D01*
X119984659Y-78135341D01*
X120091005Y-78264922D01*
X120170023Y-78412756D01*
X120170024Y-78412759D01*
X120170025Y-78412761D01*
X120215713Y-78563375D01*
X120218687Y-78573179D01*
X120235117Y-78740000D01*
X120218687Y-78906821D01*
X120218686Y-78906824D01*
X120218686Y-78906825D01*
X120180255Y-79033516D01*
X120170023Y-79067244D01*
X120091005Y-79215078D01*
X119984659Y-79344659D01*
X119855078Y-79451005D01*
X119707244Y-79530023D01*
X119707241Y-79530024D01*
X119707239Y-79530025D01*
X119546825Y-79578686D01*
X119546824Y-79578686D01*
X119546821Y-79578687D01*
X119421804Y-79591000D01*
X119338196Y-79591000D01*
X119213179Y-79578687D01*
X119213176Y-79578686D01*
X119213175Y-79578686D01*
X119052761Y-79530025D01*
X119052759Y-79530024D01*
X119052756Y-79530023D01*
X118904922Y-79451005D01*
X118775341Y-79344659D01*
X118668995Y-79215078D01*
X118589977Y-79067244D01*
X118579746Y-79033516D01*
X118541314Y-78906825D01*
X118541314Y-78906824D01*
X118541313Y-78906821D01*
X118524883Y-78740000D01*
X118541313Y-78573179D01*
X118544287Y-78563375D01*
X118589975Y-78412761D01*
X118589976Y-78412759D01*
X118589977Y-78412756D01*
X118668995Y-78264922D01*
X118775341Y-78135341D01*
X118904922Y-78028995D01*
X119052756Y-77949977D01*
X119052759Y-77949976D01*
X119052761Y-77949975D01*
X119213175Y-77901314D01*
X119213176Y-77901314D01*
X119213179Y-77901313D01*
X119338196Y-77889000D01*
X119421804Y-77889000D01*
X119546821Y-77901313D01*
X119546821Y-77901313D01*
G37*
G36*
X111926821Y-77901313D02*
X111926824Y-77901314D01*
X111926825Y-77901314D01*
X112087239Y-77949975D01*
X112087241Y-77949976D01*
X112087244Y-77949977D01*
X112235078Y-78028995D01*
X112364659Y-78135341D01*
X112471005Y-78264922D01*
X112550023Y-78412756D01*
X112550024Y-78412759D01*
X112550025Y-78412761D01*
X112595713Y-78563375D01*
X112598687Y-78573179D01*
X112615117Y-78740000D01*
X112598687Y-78906821D01*
X112598686Y-78906824D01*
X112598686Y-78906825D01*
X112560255Y-79033516D01*
X112550023Y-79067244D01*
X112471005Y-79215078D01*
X112364659Y-79344659D01*
X112235078Y-79451005D01*
X112087244Y-79530023D01*
X112087241Y-79530024D01*
X112087239Y-79530025D01*
X111926825Y-79578686D01*
X111926824Y-79578686D01*
X111926821Y-79578687D01*
X111801804Y-79591000D01*
X111718196Y-79591000D01*
X111593179Y-79578687D01*
X111593176Y-79578686D01*
X111593175Y-79578686D01*
X111432761Y-79530025D01*
X111432759Y-79530024D01*
X111432756Y-79530023D01*
X111284922Y-79451005D01*
X111155341Y-79344659D01*
X111048995Y-79215078D01*
X110969977Y-79067244D01*
X110959746Y-79033516D01*
X110921314Y-78906825D01*
X110921314Y-78906824D01*
X110921313Y-78906821D01*
X110904883Y-78740000D01*
X110921313Y-78573179D01*
X110924287Y-78563375D01*
X110969975Y-78412761D01*
X110969976Y-78412759D01*
X110969977Y-78412756D01*
X111048995Y-78264922D01*
X111155341Y-78135341D01*
X111284922Y-78028995D01*
X111432756Y-77949977D01*
X111432759Y-77949976D01*
X111432761Y-77949975D01*
X111593175Y-77901314D01*
X111593176Y-77901314D01*
X111593179Y-77901313D01*
X111718196Y-77889000D01*
X111801804Y-77889000D01*
X111926821Y-77901313D01*
X111926821Y-77901313D01*
G37*
G36*
X106928228Y-77921703D02*
X107083100Y-77985853D01*
X107222481Y-78078985D01*
X107341015Y-78197519D01*
X107434147Y-78336900D01*
X107498297Y-78491772D01*
X107531000Y-78656184D01*
X107531000Y-78823816D01*
X107498297Y-78988228D01*
X107434147Y-79143100D01*
X107341015Y-79282481D01*
X107222481Y-79401015D01*
X107083100Y-79494147D01*
X106928228Y-79558297D01*
X106763816Y-79591000D01*
X106596184Y-79591000D01*
X106431772Y-79558297D01*
X106276900Y-79494147D01*
X106137519Y-79401015D01*
X106018985Y-79282481D01*
X105925853Y-79143100D01*
X105861703Y-78988228D01*
X105829000Y-78823816D01*
X105829000Y-78656184D01*
X105861703Y-78491772D01*
X105925853Y-78336900D01*
X106018985Y-78197519D01*
X106137519Y-78078985D01*
X106276900Y-77985853D01*
X106431772Y-77921703D01*
X106596184Y-77889000D01*
X106763816Y-77889000D01*
X106928228Y-77921703D01*
X106928228Y-77921703D01*
G37*
G36*
X139331000Y-77101000D02*
X137529000Y-77101000D01*
X137529000Y-75299000D01*
X139331000Y-75299000D01*
X139331000Y-77101000D01*
X139331000Y-77101000D01*
G37*
G36*
X97421000Y-77101000D02*
X95619000Y-77101000D01*
X95619000Y-75299000D01*
X97421000Y-75299000D01*
X97421000Y-77101000D01*
X97421000Y-77101000D01*
G37*
G36*
X111926821Y-75361313D02*
X111926824Y-75361314D01*
X111926825Y-75361314D01*
X112087239Y-75409975D01*
X112087241Y-75409976D01*
X112087244Y-75409977D01*
X112235078Y-75488995D01*
X112364659Y-75595341D01*
X112471005Y-75724922D01*
X112550023Y-75872756D01*
X112550024Y-75872759D01*
X112550025Y-75872761D01*
X112582859Y-75981000D01*
X112598687Y-76033179D01*
X112615117Y-76200000D01*
X112598687Y-76366821D01*
X112598686Y-76366824D01*
X112598686Y-76366825D01*
X112573993Y-76448228D01*
X112550023Y-76527244D01*
X112471005Y-76675078D01*
X112364659Y-76804659D01*
X112235078Y-76911005D01*
X112087244Y-76990023D01*
X112087241Y-76990024D01*
X112087239Y-76990025D01*
X111926825Y-77038686D01*
X111926824Y-77038686D01*
X111926821Y-77038687D01*
X111801804Y-77051000D01*
X111718196Y-77051000D01*
X111593179Y-77038687D01*
X111593176Y-77038686D01*
X111593175Y-77038686D01*
X111432761Y-76990025D01*
X111432759Y-76990024D01*
X111432756Y-76990023D01*
X111284922Y-76911005D01*
X111155341Y-76804659D01*
X111048995Y-76675078D01*
X110969977Y-76527244D01*
X110946008Y-76448228D01*
X110921314Y-76366825D01*
X110921314Y-76366824D01*
X110921313Y-76366821D01*
X110904883Y-76200000D01*
X110921313Y-76033179D01*
X110937141Y-75981000D01*
X110969975Y-75872761D01*
X110969976Y-75872759D01*
X110969977Y-75872756D01*
X111048995Y-75724922D01*
X111155341Y-75595341D01*
X111284922Y-75488995D01*
X111432756Y-75409977D01*
X111432759Y-75409976D01*
X111432761Y-75409975D01*
X111593175Y-75361314D01*
X111593176Y-75361314D01*
X111593179Y-75361313D01*
X111718196Y-75349000D01*
X111801804Y-75349000D01*
X111926821Y-75361313D01*
X111926821Y-75361313D01*
G37*
G36*
X101928228Y-75381703D02*
X102083100Y-75445853D01*
X102222481Y-75538985D01*
X102341015Y-75657519D01*
X102434147Y-75796900D01*
X102498297Y-75951772D01*
X102531000Y-76116184D01*
X102531000Y-76283816D01*
X102498297Y-76448228D01*
X102434147Y-76603100D01*
X102341015Y-76742481D01*
X102222481Y-76861015D01*
X102083100Y-76954147D01*
X101928228Y-77018297D01*
X101763816Y-77051000D01*
X101596184Y-77051000D01*
X101431772Y-77018297D01*
X101276900Y-76954147D01*
X101137519Y-76861015D01*
X101018985Y-76742481D01*
X100925853Y-76603100D01*
X100861703Y-76448228D01*
X100829000Y-76283816D01*
X100829000Y-76116184D01*
X100861703Y-75951772D01*
X100925853Y-75796900D01*
X101018985Y-75657519D01*
X101137519Y-75538985D01*
X101276900Y-75445853D01*
X101431772Y-75381703D01*
X101596184Y-75349000D01*
X101763816Y-75349000D01*
X101928228Y-75381703D01*
X101928228Y-75381703D01*
G37*
G36*
X119546821Y-75361313D02*
X119546824Y-75361314D01*
X119546825Y-75361314D01*
X119707239Y-75409975D01*
X119707241Y-75409976D01*
X119707244Y-75409977D01*
X119855078Y-75488995D01*
X119984659Y-75595341D01*
X120091005Y-75724922D01*
X120170023Y-75872756D01*
X120170024Y-75872759D01*
X120170025Y-75872761D01*
X120202859Y-75981000D01*
X120218687Y-76033179D01*
X120235117Y-76200000D01*
X120218687Y-76366821D01*
X120218686Y-76366824D01*
X120218686Y-76366825D01*
X120193993Y-76448228D01*
X120170023Y-76527244D01*
X120091005Y-76675078D01*
X119984659Y-76804659D01*
X119855078Y-76911005D01*
X119707244Y-76990023D01*
X119707241Y-76990024D01*
X119707239Y-76990025D01*
X119546825Y-77038686D01*
X119546824Y-77038686D01*
X119546821Y-77038687D01*
X119421804Y-77051000D01*
X119338196Y-77051000D01*
X119213179Y-77038687D01*
X119213176Y-77038686D01*
X119213175Y-77038686D01*
X119052761Y-76990025D01*
X119052759Y-76990024D01*
X119052756Y-76990023D01*
X118904922Y-76911005D01*
X118775341Y-76804659D01*
X118668995Y-76675078D01*
X118589977Y-76527244D01*
X118566008Y-76448228D01*
X118541314Y-76366825D01*
X118541314Y-76366824D01*
X118541313Y-76366821D01*
X118524883Y-76200000D01*
X118541313Y-76033179D01*
X118557141Y-75981000D01*
X118589975Y-75872761D01*
X118589976Y-75872759D01*
X118589977Y-75872756D01*
X118668995Y-75724922D01*
X118775341Y-75595341D01*
X118904922Y-75488995D01*
X119052756Y-75409977D01*
X119052759Y-75409976D01*
X119052761Y-75409975D01*
X119213175Y-75361314D01*
X119213176Y-75361314D01*
X119213179Y-75361313D01*
X119338196Y-75349000D01*
X119421804Y-75349000D01*
X119546821Y-75361313D01*
X119546821Y-75361313D01*
G37*
G36*
X106928228Y-75381703D02*
X107083100Y-75445853D01*
X107222481Y-75538985D01*
X107341015Y-75657519D01*
X107434147Y-75796900D01*
X107498297Y-75951772D01*
X107531000Y-76116184D01*
X107531000Y-76283816D01*
X107498297Y-76448228D01*
X107434147Y-76603100D01*
X107341015Y-76742481D01*
X107222481Y-76861015D01*
X107083100Y-76954147D01*
X106928228Y-77018297D01*
X106763816Y-77051000D01*
X106596184Y-77051000D01*
X106431772Y-77018297D01*
X106276900Y-76954147D01*
X106137519Y-76861015D01*
X106018985Y-76742481D01*
X105925853Y-76603100D01*
X105861703Y-76448228D01*
X105829000Y-76283816D01*
X105829000Y-76116184D01*
X105861703Y-75951772D01*
X105925853Y-75796900D01*
X106018985Y-75657519D01*
X106137519Y-75538985D01*
X106276900Y-75445853D01*
X106431772Y-75381703D01*
X106596184Y-75349000D01*
X106763816Y-75349000D01*
X106928228Y-75381703D01*
X106928228Y-75381703D01*
G37*
G36*
X126036565Y-73919389D02*
X126227834Y-73998615D01*
X126399976Y-74113637D01*
X126546363Y-74260024D01*
X126661385Y-74432166D01*
X126740611Y-74623435D01*
X126781000Y-74826484D01*
X126781000Y-75033516D01*
X126740611Y-75236565D01*
X126661385Y-75427834D01*
X126546363Y-75599976D01*
X126399976Y-75746363D01*
X126227834Y-75861385D01*
X126036565Y-75940611D01*
X125833516Y-75981000D01*
X125626484Y-75981000D01*
X125423435Y-75940611D01*
X125232166Y-75861385D01*
X125060024Y-75746363D01*
X124913637Y-75599976D01*
X124798615Y-75427834D01*
X124719389Y-75236565D01*
X124679000Y-75033516D01*
X124679000Y-74826484D01*
X124719389Y-74623435D01*
X124798615Y-74432166D01*
X124913637Y-74260024D01*
X125060024Y-74113637D01*
X125232166Y-73998615D01*
X125423435Y-73919389D01*
X125626484Y-73879000D01*
X125833516Y-73879000D01*
X126036565Y-73919389D01*
X126036565Y-73919389D01*
G37*
G36*
X106928228Y-72841703D02*
X107083100Y-72905853D01*
X107222481Y-72998985D01*
X107341015Y-73117519D01*
X107434147Y-73256900D01*
X107498297Y-73411772D01*
X107531000Y-73576184D01*
X107531000Y-73743816D01*
X107498297Y-73908228D01*
X107434147Y-74063100D01*
X107341015Y-74202481D01*
X107222481Y-74321015D01*
X107083100Y-74414147D01*
X106928228Y-74478297D01*
X106763816Y-74511000D01*
X106596184Y-74511000D01*
X106431772Y-74478297D01*
X106276900Y-74414147D01*
X106137519Y-74321015D01*
X106018985Y-74202481D01*
X105925853Y-74063100D01*
X105861703Y-73908228D01*
X105829000Y-73743816D01*
X105829000Y-73576184D01*
X105861703Y-73411772D01*
X105925853Y-73256900D01*
X106018985Y-73117519D01*
X106137519Y-72998985D01*
X106276900Y-72905853D01*
X106431772Y-72841703D01*
X106596184Y-72809000D01*
X106763816Y-72809000D01*
X106928228Y-72841703D01*
X106928228Y-72841703D01*
G37*
G36*
X111926821Y-72821313D02*
X111926824Y-72821314D01*
X111926825Y-72821314D01*
X112087239Y-72869975D01*
X112087241Y-72869976D01*
X112087244Y-72869977D01*
X112235078Y-72948995D01*
X112364659Y-73055341D01*
X112471005Y-73184922D01*
X112550023Y-73332756D01*
X112550024Y-73332759D01*
X112550025Y-73332761D01*
X112598686Y-73493175D01*
X112598687Y-73493179D01*
X112615117Y-73660000D01*
X112598687Y-73826821D01*
X112598686Y-73826824D01*
X112598686Y-73826825D01*
X112570607Y-73919390D01*
X112550023Y-73987244D01*
X112471005Y-74135078D01*
X112364659Y-74264659D01*
X112235078Y-74371005D01*
X112087244Y-74450023D01*
X112087241Y-74450024D01*
X112087239Y-74450025D01*
X111926825Y-74498686D01*
X111926824Y-74498686D01*
X111926821Y-74498687D01*
X111801804Y-74511000D01*
X111718196Y-74511000D01*
X111593179Y-74498687D01*
X111593176Y-74498686D01*
X111593175Y-74498686D01*
X111432761Y-74450025D01*
X111432759Y-74450024D01*
X111432756Y-74450023D01*
X111284922Y-74371005D01*
X111155341Y-74264659D01*
X111048995Y-74135078D01*
X110969977Y-73987244D01*
X110949394Y-73919390D01*
X110921314Y-73826825D01*
X110921314Y-73826824D01*
X110921313Y-73826821D01*
X110904883Y-73660000D01*
X110921313Y-73493179D01*
X110921314Y-73493175D01*
X110969975Y-73332761D01*
X110969976Y-73332759D01*
X110969977Y-73332756D01*
X111048995Y-73184922D01*
X111155341Y-73055341D01*
X111284922Y-72948995D01*
X111432756Y-72869977D01*
X111432759Y-72869976D01*
X111432761Y-72869975D01*
X111593175Y-72821314D01*
X111593176Y-72821314D01*
X111593179Y-72821313D01*
X111718196Y-72809000D01*
X111801804Y-72809000D01*
X111926821Y-72821313D01*
X111926821Y-72821313D01*
G37*
G36*
X119546821Y-72821313D02*
X119546824Y-72821314D01*
X119546825Y-72821314D01*
X119707239Y-72869975D01*
X119707241Y-72869976D01*
X119707244Y-72869977D01*
X119855078Y-72948995D01*
X119984659Y-73055341D01*
X120091005Y-73184922D01*
X120170023Y-73332756D01*
X120170024Y-73332759D01*
X120170025Y-73332761D01*
X120218686Y-73493175D01*
X120218687Y-73493179D01*
X120235117Y-73660000D01*
X120218687Y-73826821D01*
X120218686Y-73826824D01*
X120218686Y-73826825D01*
X120190607Y-73919390D01*
X120170023Y-73987244D01*
X120091005Y-74135078D01*
X119984659Y-74264659D01*
X119855078Y-74371005D01*
X119707244Y-74450023D01*
X119707241Y-74450024D01*
X119707239Y-74450025D01*
X119546825Y-74498686D01*
X119546824Y-74498686D01*
X119546821Y-74498687D01*
X119421804Y-74511000D01*
X119338196Y-74511000D01*
X119213179Y-74498687D01*
X119213176Y-74498686D01*
X119213175Y-74498686D01*
X119052761Y-74450025D01*
X119052759Y-74450024D01*
X119052756Y-74450023D01*
X118904922Y-74371005D01*
X118775341Y-74264659D01*
X118668995Y-74135078D01*
X118589977Y-73987244D01*
X118569394Y-73919390D01*
X118541314Y-73826825D01*
X118541314Y-73826824D01*
X118541313Y-73826821D01*
X118524883Y-73660000D01*
X118541313Y-73493179D01*
X118541314Y-73493175D01*
X118589975Y-73332761D01*
X118589976Y-73332759D01*
X118589977Y-73332756D01*
X118668995Y-73184922D01*
X118775341Y-73055341D01*
X118904922Y-72948995D01*
X119052756Y-72869977D01*
X119052759Y-72869976D01*
X119052761Y-72869975D01*
X119213175Y-72821314D01*
X119213176Y-72821314D01*
X119213179Y-72821313D01*
X119338196Y-72809000D01*
X119421804Y-72809000D01*
X119546821Y-72821313D01*
X119546821Y-72821313D01*
G37*
G36*
X101928228Y-72841703D02*
X102083100Y-72905853D01*
X102222481Y-72998985D01*
X102341015Y-73117519D01*
X102434147Y-73256900D01*
X102498297Y-73411772D01*
X102531000Y-73576184D01*
X102531000Y-73743816D01*
X102498297Y-73908228D01*
X102434147Y-74063100D01*
X102341015Y-74202481D01*
X102222481Y-74321015D01*
X102083100Y-74414147D01*
X101928228Y-74478297D01*
X101763816Y-74511000D01*
X101596184Y-74511000D01*
X101431772Y-74478297D01*
X101276900Y-74414147D01*
X101137519Y-74321015D01*
X101018985Y-74202481D01*
X100925853Y-74063100D01*
X100861703Y-73908228D01*
X100829000Y-73743816D01*
X100829000Y-73576184D01*
X100861703Y-73411772D01*
X100925853Y-73256900D01*
X101018985Y-73117519D01*
X101137519Y-72998985D01*
X101276900Y-72905853D01*
X101431772Y-72841703D01*
X101596184Y-72809000D01*
X101763816Y-72809000D01*
X101928228Y-72841703D01*
X101928228Y-72841703D01*
G37*
G36*
X112611000Y-71971000D02*
X110909000Y-71971000D01*
X110909000Y-70269000D01*
X112611000Y-70269000D01*
X112611000Y-71971000D01*
X112611000Y-71971000D01*
G37*
G36*
X119546821Y-70281313D02*
X119546824Y-70281314D01*
X119546825Y-70281314D01*
X119707239Y-70329975D01*
X119707241Y-70329976D01*
X119707244Y-70329977D01*
X119855078Y-70408995D01*
X119984659Y-70515341D01*
X120091005Y-70644922D01*
X120170023Y-70792756D01*
X120218687Y-70953179D01*
X120235117Y-71120000D01*
X120218687Y-71286821D01*
X120170023Y-71447244D01*
X120091005Y-71595078D01*
X119984659Y-71724659D01*
X119855078Y-71831005D01*
X119707244Y-71910023D01*
X119707241Y-71910024D01*
X119707239Y-71910025D01*
X119546825Y-71958686D01*
X119546824Y-71958686D01*
X119546821Y-71958687D01*
X119421804Y-71971000D01*
X119338196Y-71971000D01*
X119213179Y-71958687D01*
X119213176Y-71958686D01*
X119213175Y-71958686D01*
X119052761Y-71910025D01*
X119052759Y-71910024D01*
X119052756Y-71910023D01*
X118904922Y-71831005D01*
X118775341Y-71724659D01*
X118668995Y-71595078D01*
X118589977Y-71447244D01*
X118541313Y-71286821D01*
X118524883Y-71120000D01*
X118541313Y-70953179D01*
X118589977Y-70792756D01*
X118668995Y-70644922D01*
X118775341Y-70515341D01*
X118904922Y-70408995D01*
X119052756Y-70329977D01*
X119052759Y-70329976D01*
X119052761Y-70329975D01*
X119213175Y-70281314D01*
X119213176Y-70281314D01*
X119213179Y-70281313D01*
X119338196Y-70269000D01*
X119421804Y-70269000D01*
X119546821Y-70281313D01*
X119546821Y-70281313D01*
G37*
G36*
X139281000Y-70701000D02*
X137579000Y-70701000D01*
X137579000Y-68999000D01*
X139281000Y-68999000D01*
X139281000Y-70701000D01*
X139281000Y-70701000D01*
G37*
G36*
X126581000Y-70701000D02*
X124879000Y-70701000D01*
X124879000Y-68999000D01*
X126581000Y-68999000D01*
X126581000Y-70701000D01*
X126581000Y-70701000D01*
G37*
G36*
X96895256Y-66971298D02*
X97001579Y-66992447D01*
X97302042Y-67116903D01*
X97525456Y-67266184D01*
X97572454Y-67297587D01*
X97802413Y-67527546D01*
X97802415Y-67527549D01*
X97953124Y-67753100D01*
X97983098Y-67797960D01*
X98107553Y-68098422D01*
X98171000Y-68417389D01*
X98171000Y-68742611D01*
X98107553Y-69061578D01*
X97983098Y-69362040D01*
X97802413Y-69632454D01*
X97572454Y-69862413D01*
X97572451Y-69862415D01*
X97302042Y-70043097D01*
X97001579Y-70167553D01*
X96895256Y-70188702D01*
X96682611Y-70231000D01*
X96357389Y-70231000D01*
X96144744Y-70188702D01*
X96038421Y-70167553D01*
X95737958Y-70043097D01*
X95467549Y-69862415D01*
X95467546Y-69862413D01*
X95237587Y-69632454D01*
X95056902Y-69362040D01*
X94932447Y-69061578D01*
X94869000Y-68742611D01*
X94869000Y-68417389D01*
X94932447Y-68098422D01*
X95056902Y-67797960D01*
X95086877Y-67753100D01*
X95237585Y-67527549D01*
X95237587Y-67527546D01*
X95467546Y-67297587D01*
X95514544Y-67266184D01*
X95737958Y-67116903D01*
X96038421Y-66992447D01*
X96144744Y-66971298D01*
X96357389Y-66929000D01*
X96682611Y-66929000D01*
X96895256Y-66971298D01*
X96895256Y-66971298D01*
G37*
G36*
X133231000Y-69731000D02*
X130929000Y-69731000D01*
X130929000Y-67429000D01*
X133231000Y-67429000D01*
X133231000Y-69731000D01*
X133231000Y-69731000D01*
G37*
G36*
X138678228Y-66531703D02*
X138833100Y-66595853D01*
X138972481Y-66688985D01*
X139091015Y-66807519D01*
X139184147Y-66946900D01*
X139248297Y-67101772D01*
X139281000Y-67266184D01*
X139281000Y-67433816D01*
X139248297Y-67598228D01*
X139184147Y-67753100D01*
X139091015Y-67892481D01*
X138972481Y-68011015D01*
X138833100Y-68104147D01*
X138678228Y-68168297D01*
X138513816Y-68201000D01*
X138346184Y-68201000D01*
X138181772Y-68168297D01*
X138026900Y-68104147D01*
X137887519Y-68011015D01*
X137768985Y-67892481D01*
X137675853Y-67753100D01*
X137611703Y-67598228D01*
X137579000Y-67433816D01*
X137579000Y-67266184D01*
X137611703Y-67101772D01*
X137675853Y-66946900D01*
X137768985Y-66807519D01*
X137887519Y-66688985D01*
X138026900Y-66595853D01*
X138181772Y-66531703D01*
X138346184Y-66499000D01*
X138513816Y-66499000D01*
X138678228Y-66531703D01*
X138678228Y-66531703D01*
G37*
G36*
X125978228Y-66531703D02*
X126133100Y-66595853D01*
X126272481Y-66688985D01*
X126391015Y-66807519D01*
X126484147Y-66946900D01*
X126548297Y-67101772D01*
X126581000Y-67266184D01*
X126581000Y-67433816D01*
X126548297Y-67598228D01*
X126484147Y-67753100D01*
X126391015Y-67892481D01*
X126272481Y-68011015D01*
X126133100Y-68104147D01*
X125978228Y-68168297D01*
X125813816Y-68201000D01*
X125646184Y-68201000D01*
X125481772Y-68168297D01*
X125326900Y-68104147D01*
X125187519Y-68011015D01*
X125068985Y-67892481D01*
X124975853Y-67753100D01*
X124911703Y-67598228D01*
X124879000Y-67433816D01*
X124879000Y-67266184D01*
X124911703Y-67101772D01*
X124975853Y-66946900D01*
X125068985Y-66807519D01*
X125187519Y-66688985D01*
X125326900Y-66595853D01*
X125481772Y-66531703D01*
X125646184Y-66499000D01*
X125813816Y-66499000D01*
X125978228Y-66531703D01*
X125978228Y-66531703D01*
G37*
M02*
