G04 #@! TF.GenerationSoftware,KiCad,Pcbnew,(5.0.2)-1*
G04 #@! TF.CreationDate,2020-01-31T21:18:01-08:00*
G04 #@! TF.ProjectId,Sienc2020,5369656e-6332-4303-9230-2e6b69636164,rev?*
G04 #@! TF.SameCoordinates,Original*
G04 #@! TF.FileFunction,Legend,Top*
G04 #@! TF.FilePolarity,Positive*
%FSLAX46Y46*%
G04 Gerber Fmt 4.6, Leading zero omitted, Abs format (unit mm)*
G04 Created by KiCad (PCBNEW (5.0.2)-1) date 31-Jan-20 21:18:01*
%MOMM*%
%LPD*%
G01*
G04 APERTURE LIST*
%ADD10C,0.150000*%
%ADD11C,0.200000*%
%ADD12C,0.300000*%
%ADD13C,0.120000*%
G04 APERTURE END LIST*
D10*
G36*
X131445000Y-85725000D02*
X130175000Y-85725000D01*
X129540000Y-85090000D01*
X129540000Y-83185000D01*
X128905000Y-82550000D01*
X130810000Y-82550000D01*
X131445000Y-83185000D01*
X131445000Y-85725000D01*
G37*
X131445000Y-85725000D02*
X130175000Y-85725000D01*
X129540000Y-85090000D01*
X129540000Y-83185000D01*
X128905000Y-82550000D01*
X130810000Y-82550000D01*
X131445000Y-83185000D01*
X131445000Y-85725000D01*
G36*
X97155000Y-85725000D02*
X98425000Y-85725000D01*
X99060000Y-85090000D01*
X99060000Y-83185000D01*
X99695000Y-82550000D01*
X97790000Y-82550000D01*
X97155000Y-83185000D01*
X97155000Y-85725000D01*
G37*
X97155000Y-85725000D02*
X98425000Y-85725000D01*
X99060000Y-85090000D01*
X99060000Y-83185000D01*
X99695000Y-82550000D01*
X97790000Y-82550000D01*
X97155000Y-83185000D01*
X97155000Y-85725000D01*
D11*
X129540000Y-83185000D02*
X128905000Y-82550000D01*
X129540000Y-85090000D02*
X129540000Y-83185000D01*
X130175000Y-85725000D02*
X129540000Y-85090000D01*
X131445000Y-85725000D02*
X130175000Y-85725000D01*
X99060000Y-83185000D02*
X99695000Y-82550000D01*
X99060000Y-85090000D02*
X99060000Y-83185000D01*
X98425000Y-85725000D02*
X99060000Y-85090000D01*
X97155000Y-85725000D02*
X98425000Y-85725000D01*
X97790000Y-82550000D02*
X130810000Y-82550000D01*
X97155000Y-88265000D02*
X97155000Y-83185000D01*
X131445000Y-83185000D02*
X131445000Y-88265000D01*
X130810000Y-82550000D02*
X131445000Y-83185000D01*
X97155000Y-83185000D02*
X97790000Y-82550000D01*
X130810000Y-88900000D02*
X97790000Y-88900000D01*
X131445000Y-88265000D02*
X130810000Y-88900000D01*
X97790000Y-88900000D02*
X97155000Y-88265000D01*
D12*
X98692857Y-86173571D02*
X97978571Y-86173571D01*
X97907142Y-86887857D01*
X97978571Y-86816428D01*
X98121428Y-86745000D01*
X98478571Y-86745000D01*
X98621428Y-86816428D01*
X98692857Y-86887857D01*
X98764285Y-87030714D01*
X98764285Y-87387857D01*
X98692857Y-87530714D01*
X98621428Y-87602142D01*
X98478571Y-87673571D01*
X98121428Y-87673571D01*
X97978571Y-87602142D01*
X97907142Y-87530714D01*
X99192857Y-86173571D02*
X99692857Y-87673571D01*
X100192857Y-86173571D01*
X101621428Y-86673571D02*
X102192857Y-86673571D01*
X101835714Y-86173571D02*
X101835714Y-87459285D01*
X101907142Y-87602142D01*
X102050000Y-87673571D01*
X102192857Y-87673571D01*
X102907142Y-87673571D02*
X102764285Y-87602142D01*
X102692857Y-87530714D01*
X102621428Y-87387857D01*
X102621428Y-86959285D01*
X102692857Y-86816428D01*
X102764285Y-86745000D01*
X102907142Y-86673571D01*
X103121428Y-86673571D01*
X103264285Y-86745000D01*
X103335714Y-86816428D01*
X103407142Y-86959285D01*
X103407142Y-87387857D01*
X103335714Y-87530714D01*
X103264285Y-87602142D01*
X103121428Y-87673571D01*
X102907142Y-87673571D01*
X105978571Y-87673571D02*
X105121428Y-87673571D01*
X105550000Y-87673571D02*
X105550000Y-86173571D01*
X105407142Y-86387857D01*
X105264285Y-86530714D01*
X105121428Y-86602142D01*
X106550000Y-86316428D02*
X106621428Y-86245000D01*
X106764285Y-86173571D01*
X107121428Y-86173571D01*
X107264285Y-86245000D01*
X107335714Y-86316428D01*
X107407142Y-86459285D01*
X107407142Y-86602142D01*
X107335714Y-86816428D01*
X106478571Y-87673571D01*
X107407142Y-87673571D01*
X107835714Y-86173571D02*
X108335714Y-87673571D01*
X108835714Y-86173571D01*
X110407142Y-87602142D02*
X110550000Y-87673571D01*
X110835714Y-87673571D01*
X110978571Y-87602142D01*
X111050000Y-87459285D01*
X111050000Y-87387857D01*
X110978571Y-87245000D01*
X110835714Y-87173571D01*
X110621428Y-87173571D01*
X110478571Y-87102142D01*
X110407142Y-86959285D01*
X110407142Y-86887857D01*
X110478571Y-86745000D01*
X110621428Y-86673571D01*
X110835714Y-86673571D01*
X110978571Y-86745000D01*
X111478571Y-86673571D02*
X112050000Y-86673571D01*
X111692857Y-86173571D02*
X111692857Y-87459285D01*
X111764285Y-87602142D01*
X111907142Y-87673571D01*
X112050000Y-87673571D01*
X113121428Y-87602142D02*
X112978571Y-87673571D01*
X112692857Y-87673571D01*
X112550000Y-87602142D01*
X112478571Y-87459285D01*
X112478571Y-86887857D01*
X112550000Y-86745000D01*
X112692857Y-86673571D01*
X112978571Y-86673571D01*
X113121428Y-86745000D01*
X113192857Y-86887857D01*
X113192857Y-87030714D01*
X112478571Y-87173571D01*
X113835714Y-86673571D02*
X113835714Y-88173571D01*
X113835714Y-86745000D02*
X113978571Y-86673571D01*
X114264285Y-86673571D01*
X114407142Y-86745000D01*
X114478571Y-86816428D01*
X114550000Y-86959285D01*
X114550000Y-87387857D01*
X114478571Y-87530714D01*
X114407142Y-87602142D01*
X114264285Y-87673571D01*
X113978571Y-87673571D01*
X113835714Y-87602142D01*
X115192857Y-87102142D02*
X116335714Y-87102142D01*
X117692857Y-86673571D02*
X117692857Y-87673571D01*
X117050000Y-86673571D02*
X117050000Y-87459285D01*
X117121428Y-87602142D01*
X117264285Y-87673571D01*
X117478571Y-87673571D01*
X117621428Y-87602142D01*
X117692857Y-87530714D01*
X118407142Y-86673571D02*
X118407142Y-88173571D01*
X118407142Y-86745000D02*
X118550000Y-86673571D01*
X118835714Y-86673571D01*
X118978571Y-86745000D01*
X119050000Y-86816428D01*
X119121428Y-86959285D01*
X119121428Y-87387857D01*
X119050000Y-87530714D01*
X118978571Y-87602142D01*
X118835714Y-87673571D01*
X118550000Y-87673571D01*
X118407142Y-87602142D01*
X121550000Y-87602142D02*
X121407142Y-87673571D01*
X121121428Y-87673571D01*
X120978571Y-87602142D01*
X120907142Y-87530714D01*
X120835714Y-87387857D01*
X120835714Y-86959285D01*
X120907142Y-86816428D01*
X120978571Y-86745000D01*
X121121428Y-86673571D01*
X121407142Y-86673571D01*
X121550000Y-86745000D01*
X122407142Y-87673571D02*
X122264285Y-87602142D01*
X122192857Y-87530714D01*
X122121428Y-87387857D01*
X122121428Y-86959285D01*
X122192857Y-86816428D01*
X122264285Y-86745000D01*
X122407142Y-86673571D01*
X122621428Y-86673571D01*
X122764285Y-86745000D01*
X122835714Y-86816428D01*
X122907142Y-86959285D01*
X122907142Y-87387857D01*
X122835714Y-87530714D01*
X122764285Y-87602142D01*
X122621428Y-87673571D01*
X122407142Y-87673571D01*
X123550000Y-86673571D02*
X123550000Y-87673571D01*
X123550000Y-86816428D02*
X123621428Y-86745000D01*
X123764285Y-86673571D01*
X123978571Y-86673571D01*
X124121428Y-86745000D01*
X124192857Y-86887857D01*
X124192857Y-87673571D01*
X124764285Y-86673571D02*
X125121428Y-87673571D01*
X125478571Y-86673571D01*
X126621428Y-87602142D02*
X126478571Y-87673571D01*
X126192857Y-87673571D01*
X126050000Y-87602142D01*
X125978571Y-87459285D01*
X125978571Y-86887857D01*
X126050000Y-86745000D01*
X126192857Y-86673571D01*
X126478571Y-86673571D01*
X126621428Y-86745000D01*
X126692857Y-86887857D01*
X126692857Y-87030714D01*
X125978571Y-87173571D01*
X127335714Y-87673571D02*
X127335714Y-86673571D01*
X127335714Y-86959285D02*
X127407142Y-86816428D01*
X127478571Y-86745000D01*
X127621428Y-86673571D01*
X127764285Y-86673571D01*
X128050000Y-86673571D02*
X128621428Y-86673571D01*
X128264285Y-86173571D02*
X128264285Y-87459285D01*
X128335714Y-87602142D01*
X128478571Y-87673571D01*
X128621428Y-87673571D01*
X129692857Y-87602142D02*
X129550000Y-87673571D01*
X129264285Y-87673571D01*
X129121428Y-87602142D01*
X129050000Y-87459285D01*
X129050000Y-86887857D01*
X129121428Y-86745000D01*
X129264285Y-86673571D01*
X129550000Y-86673571D01*
X129692857Y-86745000D01*
X129764285Y-86887857D01*
X129764285Y-87030714D01*
X129050000Y-87173571D01*
X130407142Y-87673571D02*
X130407142Y-86673571D01*
X130407142Y-86959285D02*
X130478571Y-86816428D01*
X130550000Y-86745000D01*
X130692857Y-86673571D01*
X130835714Y-86673571D01*
X100550000Y-85705000D02*
X100478571Y-85633571D01*
X100335714Y-85419285D01*
X100264285Y-85276428D01*
X100192857Y-85062142D01*
X100121428Y-84705000D01*
X100121428Y-84419285D01*
X100192857Y-84062142D01*
X100264285Y-83847857D01*
X100335714Y-83705000D01*
X100478571Y-83490714D01*
X100550000Y-83419285D01*
X101978571Y-84990714D02*
X101907142Y-85062142D01*
X101692857Y-85133571D01*
X101550000Y-85133571D01*
X101335714Y-85062142D01*
X101192857Y-84919285D01*
X101121428Y-84776428D01*
X101050000Y-84490714D01*
X101050000Y-84276428D01*
X101121428Y-83990714D01*
X101192857Y-83847857D01*
X101335714Y-83705000D01*
X101550000Y-83633571D01*
X101692857Y-83633571D01*
X101907142Y-83705000D01*
X101978571Y-83776428D01*
X102478571Y-85705000D02*
X102550000Y-85633571D01*
X102692857Y-85419285D01*
X102764285Y-85276428D01*
X102835714Y-85062142D01*
X102907142Y-84705000D01*
X102907142Y-84419285D01*
X102835714Y-84062142D01*
X102764285Y-83847857D01*
X102692857Y-83705000D01*
X102550000Y-83490714D01*
X102478571Y-83419285D01*
X104692857Y-83776428D02*
X104764285Y-83705000D01*
X104907142Y-83633571D01*
X105264285Y-83633571D01*
X105407142Y-83705000D01*
X105478571Y-83776428D01*
X105550000Y-83919285D01*
X105550000Y-84062142D01*
X105478571Y-84276428D01*
X104621428Y-85133571D01*
X105550000Y-85133571D01*
X106478571Y-83633571D02*
X106621428Y-83633571D01*
X106764285Y-83705000D01*
X106835714Y-83776428D01*
X106907142Y-83919285D01*
X106978571Y-84205000D01*
X106978571Y-84562142D01*
X106907142Y-84847857D01*
X106835714Y-84990714D01*
X106764285Y-85062142D01*
X106621428Y-85133571D01*
X106478571Y-85133571D01*
X106335714Y-85062142D01*
X106264285Y-84990714D01*
X106192857Y-84847857D01*
X106121428Y-84562142D01*
X106121428Y-84205000D01*
X106192857Y-83919285D01*
X106264285Y-83776428D01*
X106335714Y-83705000D01*
X106478571Y-83633571D01*
X107550000Y-83776428D02*
X107621428Y-83705000D01*
X107764285Y-83633571D01*
X108121428Y-83633571D01*
X108264285Y-83705000D01*
X108335714Y-83776428D01*
X108407142Y-83919285D01*
X108407142Y-84062142D01*
X108335714Y-84276428D01*
X107478571Y-85133571D01*
X108407142Y-85133571D01*
X109335714Y-83633571D02*
X109478571Y-83633571D01*
X109621428Y-83705000D01*
X109692857Y-83776428D01*
X109764285Y-83919285D01*
X109835714Y-84205000D01*
X109835714Y-84562142D01*
X109764285Y-84847857D01*
X109692857Y-84990714D01*
X109621428Y-85062142D01*
X109478571Y-85133571D01*
X109335714Y-85133571D01*
X109192857Y-85062142D01*
X109121428Y-84990714D01*
X109050000Y-84847857D01*
X108978571Y-84562142D01*
X108978571Y-84205000D01*
X109050000Y-83919285D01*
X109121428Y-83776428D01*
X109192857Y-83705000D01*
X109335714Y-83633571D01*
X111621428Y-85133571D02*
X111621428Y-83633571D01*
X112121428Y-84705000D01*
X112621428Y-83633571D01*
X112621428Y-85133571D01*
X113335714Y-85133571D02*
X113335714Y-84133571D01*
X113335714Y-83633571D02*
X113264285Y-83705000D01*
X113335714Y-83776428D01*
X113407142Y-83705000D01*
X113335714Y-83633571D01*
X113335714Y-83776428D01*
X114692857Y-85062142D02*
X114550000Y-85133571D01*
X114264285Y-85133571D01*
X114121428Y-85062142D01*
X114050000Y-84990714D01*
X113978571Y-84847857D01*
X113978571Y-84419285D01*
X114050000Y-84276428D01*
X114121428Y-84205000D01*
X114264285Y-84133571D01*
X114550000Y-84133571D01*
X114692857Y-84205000D01*
X115335714Y-85133571D02*
X115335714Y-83633571D01*
X115978571Y-85133571D02*
X115978571Y-84347857D01*
X115907142Y-84205000D01*
X115764285Y-84133571D01*
X115550000Y-84133571D01*
X115407142Y-84205000D01*
X115335714Y-84276428D01*
X117335714Y-85133571D02*
X117335714Y-84347857D01*
X117264285Y-84205000D01*
X117121428Y-84133571D01*
X116835714Y-84133571D01*
X116692857Y-84205000D01*
X117335714Y-85062142D02*
X117192857Y-85133571D01*
X116835714Y-85133571D01*
X116692857Y-85062142D01*
X116621428Y-84919285D01*
X116621428Y-84776428D01*
X116692857Y-84633571D01*
X116835714Y-84562142D01*
X117192857Y-84562142D01*
X117335714Y-84490714D01*
X118621428Y-85062142D02*
X118478571Y-85133571D01*
X118192857Y-85133571D01*
X118050000Y-85062142D01*
X117978571Y-84919285D01*
X117978571Y-84347857D01*
X118050000Y-84205000D01*
X118192857Y-84133571D01*
X118478571Y-84133571D01*
X118621428Y-84205000D01*
X118692857Y-84347857D01*
X118692857Y-84490714D01*
X117978571Y-84633571D01*
X119550000Y-85133571D02*
X119407142Y-85062142D01*
X119335714Y-84919285D01*
X119335714Y-83633571D01*
X121264285Y-85133571D02*
X121264285Y-83633571D01*
X122121428Y-85133571D02*
X121478571Y-84276428D01*
X122121428Y-83633571D02*
X121264285Y-84490714D01*
X122764285Y-85133571D02*
X122764285Y-84133571D01*
X122764285Y-83633571D02*
X122692857Y-83705000D01*
X122764285Y-83776428D01*
X122835714Y-83705000D01*
X122764285Y-83633571D01*
X122764285Y-83776428D01*
X123407142Y-85062142D02*
X123550000Y-85133571D01*
X123835714Y-85133571D01*
X123978571Y-85062142D01*
X124050000Y-84919285D01*
X124050000Y-84847857D01*
X123978571Y-84705000D01*
X123835714Y-84633571D01*
X123621428Y-84633571D01*
X123478571Y-84562142D01*
X123407142Y-84419285D01*
X123407142Y-84347857D01*
X123478571Y-84205000D01*
X123621428Y-84133571D01*
X123835714Y-84133571D01*
X123978571Y-84205000D01*
X125264285Y-85062142D02*
X125121428Y-85133571D01*
X124835714Y-85133571D01*
X124692857Y-85062142D01*
X124621428Y-84919285D01*
X124621428Y-84347857D01*
X124692857Y-84205000D01*
X124835714Y-84133571D01*
X125121428Y-84133571D01*
X125264285Y-84205000D01*
X125335714Y-84347857D01*
X125335714Y-84490714D01*
X124621428Y-84633571D01*
X126192857Y-85133571D02*
X126050000Y-85062142D01*
X125978571Y-84919285D01*
X125978571Y-83633571D01*
X127335714Y-85062142D02*
X127192857Y-85133571D01*
X126907142Y-85133571D01*
X126764285Y-85062142D01*
X126692857Y-84919285D01*
X126692857Y-84347857D01*
X126764285Y-84205000D01*
X126907142Y-84133571D01*
X127192857Y-84133571D01*
X127335714Y-84205000D01*
X127407142Y-84347857D01*
X127407142Y-84490714D01*
X126692857Y-84633571D01*
X127907142Y-84133571D02*
X128264285Y-85133571D01*
X128621428Y-84133571D01*
D13*
G04 #@! TO.C,U1*
X116570000Y-69790000D02*
G75*
G02X114570000Y-69790000I-1000000J0D01*
G01*
X114570000Y-69790000D02*
X112920000Y-69790000D01*
X112920000Y-69790000D02*
X112920000Y-80070000D01*
X112920000Y-80070000D02*
X118220000Y-80070000D01*
X118220000Y-80070000D02*
X118220000Y-69790000D01*
X118220000Y-69790000D02*
X116570000Y-69790000D01*
G04 #@! TO.C,L1*
X126990000Y-79784260D02*
G75*
G03X126990000Y-74075740I-1260000J2854260D01*
G01*
X124470000Y-79784260D02*
G75*
G02X124470000Y-74075740I1260000J2854260D01*
G01*
G04 #@! TO.C,C1*
X123576000Y-71785241D02*
X124206000Y-71785241D01*
X123891000Y-72100241D02*
X123891000Y-71470241D01*
X125328000Y-65359000D02*
X126132000Y-65359000D01*
X125097000Y-65399000D02*
X126363000Y-65399000D01*
X124928000Y-65439000D02*
X126532000Y-65439000D01*
X124790000Y-65479000D02*
X126670000Y-65479000D01*
X124671000Y-65519000D02*
X126789000Y-65519000D01*
X124565000Y-65559000D02*
X126895000Y-65559000D01*
X124468000Y-65599000D02*
X126992000Y-65599000D01*
X124380000Y-65639000D02*
X127080000Y-65639000D01*
X124298000Y-65679000D02*
X127162000Y-65679000D01*
X124221000Y-65719000D02*
X127239000Y-65719000D01*
X124149000Y-65759000D02*
X127311000Y-65759000D01*
X124080000Y-65799000D02*
X127380000Y-65799000D01*
X124016000Y-65839000D02*
X127444000Y-65839000D01*
X123954000Y-65879000D02*
X127506000Y-65879000D01*
X123896000Y-65919000D02*
X127564000Y-65919000D01*
X123840000Y-65959000D02*
X127620000Y-65959000D01*
X123786000Y-65999000D02*
X127674000Y-65999000D01*
X123735000Y-66039000D02*
X127725000Y-66039000D01*
X123686000Y-66079000D02*
X127774000Y-66079000D01*
X123638000Y-66119000D02*
X127822000Y-66119000D01*
X123593000Y-66159000D02*
X127867000Y-66159000D01*
X123548000Y-66199000D02*
X127912000Y-66199000D01*
X123506000Y-66239000D02*
X127954000Y-66239000D01*
X123465000Y-66279000D02*
X127995000Y-66279000D01*
X126770000Y-66319000D02*
X128035000Y-66319000D01*
X123425000Y-66319000D02*
X124690000Y-66319000D01*
X126770000Y-66359000D02*
X128073000Y-66359000D01*
X123387000Y-66359000D02*
X124690000Y-66359000D01*
X126770000Y-66399000D02*
X128110000Y-66399000D01*
X123350000Y-66399000D02*
X124690000Y-66399000D01*
X126770000Y-66439000D02*
X128146000Y-66439000D01*
X123314000Y-66439000D02*
X124690000Y-66439000D01*
X126770000Y-66479000D02*
X128180000Y-66479000D01*
X123280000Y-66479000D02*
X124690000Y-66479000D01*
X126770000Y-66519000D02*
X128214000Y-66519000D01*
X123246000Y-66519000D02*
X124690000Y-66519000D01*
X126770000Y-66559000D02*
X128246000Y-66559000D01*
X123214000Y-66559000D02*
X124690000Y-66559000D01*
X126770000Y-66599000D02*
X128278000Y-66599000D01*
X123182000Y-66599000D02*
X124690000Y-66599000D01*
X126770000Y-66639000D02*
X128308000Y-66639000D01*
X123152000Y-66639000D02*
X124690000Y-66639000D01*
X126770000Y-66679000D02*
X128337000Y-66679000D01*
X123123000Y-66679000D02*
X124690000Y-66679000D01*
X126770000Y-66719000D02*
X128366000Y-66719000D01*
X123094000Y-66719000D02*
X124690000Y-66719000D01*
X126770000Y-66759000D02*
X128394000Y-66759000D01*
X123066000Y-66759000D02*
X124690000Y-66759000D01*
X126770000Y-66799000D02*
X128420000Y-66799000D01*
X123040000Y-66799000D02*
X124690000Y-66799000D01*
X126770000Y-66839000D02*
X128446000Y-66839000D01*
X123014000Y-66839000D02*
X124690000Y-66839000D01*
X126770000Y-66879000D02*
X128472000Y-66879000D01*
X122988000Y-66879000D02*
X124690000Y-66879000D01*
X126770000Y-66919000D02*
X128496000Y-66919000D01*
X122964000Y-66919000D02*
X124690000Y-66919000D01*
X126770000Y-66959000D02*
X128520000Y-66959000D01*
X122940000Y-66959000D02*
X124690000Y-66959000D01*
X126770000Y-66999000D02*
X128542000Y-66999000D01*
X122918000Y-66999000D02*
X124690000Y-66999000D01*
X126770000Y-67039000D02*
X128564000Y-67039000D01*
X122896000Y-67039000D02*
X124690000Y-67039000D01*
X126770000Y-67079000D02*
X128586000Y-67079000D01*
X122874000Y-67079000D02*
X124690000Y-67079000D01*
X126770000Y-67119000D02*
X128606000Y-67119000D01*
X122854000Y-67119000D02*
X124690000Y-67119000D01*
X126770000Y-67159000D02*
X128626000Y-67159000D01*
X122834000Y-67159000D02*
X124690000Y-67159000D01*
X126770000Y-67199000D02*
X128646000Y-67199000D01*
X122814000Y-67199000D02*
X124690000Y-67199000D01*
X126770000Y-67239000D02*
X128664000Y-67239000D01*
X122796000Y-67239000D02*
X124690000Y-67239000D01*
X126770000Y-67279000D02*
X128682000Y-67279000D01*
X122778000Y-67279000D02*
X124690000Y-67279000D01*
X126770000Y-67319000D02*
X128700000Y-67319000D01*
X122760000Y-67319000D02*
X124690000Y-67319000D01*
X126770000Y-67359000D02*
X128716000Y-67359000D01*
X122744000Y-67359000D02*
X124690000Y-67359000D01*
X126770000Y-67399000D02*
X128732000Y-67399000D01*
X122728000Y-67399000D02*
X124690000Y-67399000D01*
X126770000Y-67439000D02*
X128748000Y-67439000D01*
X122712000Y-67439000D02*
X124690000Y-67439000D01*
X126770000Y-67479000D02*
X128763000Y-67479000D01*
X122697000Y-67479000D02*
X124690000Y-67479000D01*
X126770000Y-67519000D02*
X128777000Y-67519000D01*
X122683000Y-67519000D02*
X124690000Y-67519000D01*
X126770000Y-67559000D02*
X128791000Y-67559000D01*
X122669000Y-67559000D02*
X124690000Y-67559000D01*
X126770000Y-67599000D02*
X128804000Y-67599000D01*
X122656000Y-67599000D02*
X124690000Y-67599000D01*
X126770000Y-67639000D02*
X128816000Y-67639000D01*
X122644000Y-67639000D02*
X124690000Y-67639000D01*
X126770000Y-67679000D02*
X128828000Y-67679000D01*
X122632000Y-67679000D02*
X124690000Y-67679000D01*
X126770000Y-67719000D02*
X128840000Y-67719000D01*
X122620000Y-67719000D02*
X124690000Y-67719000D01*
X126770000Y-67759000D02*
X128851000Y-67759000D01*
X122609000Y-67759000D02*
X124690000Y-67759000D01*
X126770000Y-67799000D02*
X128861000Y-67799000D01*
X122599000Y-67799000D02*
X124690000Y-67799000D01*
X126770000Y-67839000D02*
X128871000Y-67839000D01*
X122589000Y-67839000D02*
X124690000Y-67839000D01*
X126770000Y-67879000D02*
X128880000Y-67879000D01*
X122580000Y-67879000D02*
X124690000Y-67879000D01*
X126770000Y-67920000D02*
X128889000Y-67920000D01*
X122571000Y-67920000D02*
X124690000Y-67920000D01*
X126770000Y-67960000D02*
X128897000Y-67960000D01*
X122563000Y-67960000D02*
X124690000Y-67960000D01*
X126770000Y-68000000D02*
X128905000Y-68000000D01*
X122555000Y-68000000D02*
X124690000Y-68000000D01*
X126770000Y-68040000D02*
X128912000Y-68040000D01*
X122548000Y-68040000D02*
X124690000Y-68040000D01*
X126770000Y-68080000D02*
X128919000Y-68080000D01*
X122541000Y-68080000D02*
X124690000Y-68080000D01*
X126770000Y-68120000D02*
X128925000Y-68120000D01*
X122535000Y-68120000D02*
X124690000Y-68120000D01*
X126770000Y-68160000D02*
X128931000Y-68160000D01*
X122529000Y-68160000D02*
X124690000Y-68160000D01*
X126770000Y-68200000D02*
X128936000Y-68200000D01*
X122524000Y-68200000D02*
X124690000Y-68200000D01*
X126770000Y-68240000D02*
X128941000Y-68240000D01*
X122519000Y-68240000D02*
X124690000Y-68240000D01*
X126770000Y-68280000D02*
X128945000Y-68280000D01*
X122515000Y-68280000D02*
X124690000Y-68280000D01*
X126770000Y-68320000D02*
X128948000Y-68320000D01*
X122512000Y-68320000D02*
X124690000Y-68320000D01*
X126770000Y-68360000D02*
X128952000Y-68360000D01*
X122508000Y-68360000D02*
X124690000Y-68360000D01*
X122506000Y-68400000D02*
X128954000Y-68400000D01*
X122503000Y-68440000D02*
X128957000Y-68440000D01*
X122502000Y-68480000D02*
X128958000Y-68480000D01*
X122500000Y-68520000D02*
X128960000Y-68520000D01*
X122500000Y-68560000D02*
X128960000Y-68560000D01*
X122500000Y-68600000D02*
X128960000Y-68600000D01*
X129000000Y-68600000D02*
G75*
G03X129000000Y-68600000I-3270000J0D01*
G01*
G04 #@! TO.C,C5*
X141700000Y-68600000D02*
G75*
G03X141700000Y-68600000I-3270000J0D01*
G01*
X135200000Y-68600000D02*
X141660000Y-68600000D01*
X135200000Y-68560000D02*
X141660000Y-68560000D01*
X135200000Y-68520000D02*
X141660000Y-68520000D01*
X135202000Y-68480000D02*
X141658000Y-68480000D01*
X135203000Y-68440000D02*
X141657000Y-68440000D01*
X135206000Y-68400000D02*
X141654000Y-68400000D01*
X135208000Y-68360000D02*
X137390000Y-68360000D01*
X139470000Y-68360000D02*
X141652000Y-68360000D01*
X135212000Y-68320000D02*
X137390000Y-68320000D01*
X139470000Y-68320000D02*
X141648000Y-68320000D01*
X135215000Y-68280000D02*
X137390000Y-68280000D01*
X139470000Y-68280000D02*
X141645000Y-68280000D01*
X135219000Y-68240000D02*
X137390000Y-68240000D01*
X139470000Y-68240000D02*
X141641000Y-68240000D01*
X135224000Y-68200000D02*
X137390000Y-68200000D01*
X139470000Y-68200000D02*
X141636000Y-68200000D01*
X135229000Y-68160000D02*
X137390000Y-68160000D01*
X139470000Y-68160000D02*
X141631000Y-68160000D01*
X135235000Y-68120000D02*
X137390000Y-68120000D01*
X139470000Y-68120000D02*
X141625000Y-68120000D01*
X135241000Y-68080000D02*
X137390000Y-68080000D01*
X139470000Y-68080000D02*
X141619000Y-68080000D01*
X135248000Y-68040000D02*
X137390000Y-68040000D01*
X139470000Y-68040000D02*
X141612000Y-68040000D01*
X135255000Y-68000000D02*
X137390000Y-68000000D01*
X139470000Y-68000000D02*
X141605000Y-68000000D01*
X135263000Y-67960000D02*
X137390000Y-67960000D01*
X139470000Y-67960000D02*
X141597000Y-67960000D01*
X135271000Y-67920000D02*
X137390000Y-67920000D01*
X139470000Y-67920000D02*
X141589000Y-67920000D01*
X135280000Y-67879000D02*
X137390000Y-67879000D01*
X139470000Y-67879000D02*
X141580000Y-67879000D01*
X135289000Y-67839000D02*
X137390000Y-67839000D01*
X139470000Y-67839000D02*
X141571000Y-67839000D01*
X135299000Y-67799000D02*
X137390000Y-67799000D01*
X139470000Y-67799000D02*
X141561000Y-67799000D01*
X135309000Y-67759000D02*
X137390000Y-67759000D01*
X139470000Y-67759000D02*
X141551000Y-67759000D01*
X135320000Y-67719000D02*
X137390000Y-67719000D01*
X139470000Y-67719000D02*
X141540000Y-67719000D01*
X135332000Y-67679000D02*
X137390000Y-67679000D01*
X139470000Y-67679000D02*
X141528000Y-67679000D01*
X135344000Y-67639000D02*
X137390000Y-67639000D01*
X139470000Y-67639000D02*
X141516000Y-67639000D01*
X135356000Y-67599000D02*
X137390000Y-67599000D01*
X139470000Y-67599000D02*
X141504000Y-67599000D01*
X135369000Y-67559000D02*
X137390000Y-67559000D01*
X139470000Y-67559000D02*
X141491000Y-67559000D01*
X135383000Y-67519000D02*
X137390000Y-67519000D01*
X139470000Y-67519000D02*
X141477000Y-67519000D01*
X135397000Y-67479000D02*
X137390000Y-67479000D01*
X139470000Y-67479000D02*
X141463000Y-67479000D01*
X135412000Y-67439000D02*
X137390000Y-67439000D01*
X139470000Y-67439000D02*
X141448000Y-67439000D01*
X135428000Y-67399000D02*
X137390000Y-67399000D01*
X139470000Y-67399000D02*
X141432000Y-67399000D01*
X135444000Y-67359000D02*
X137390000Y-67359000D01*
X139470000Y-67359000D02*
X141416000Y-67359000D01*
X135460000Y-67319000D02*
X137390000Y-67319000D01*
X139470000Y-67319000D02*
X141400000Y-67319000D01*
X135478000Y-67279000D02*
X137390000Y-67279000D01*
X139470000Y-67279000D02*
X141382000Y-67279000D01*
X135496000Y-67239000D02*
X137390000Y-67239000D01*
X139470000Y-67239000D02*
X141364000Y-67239000D01*
X135514000Y-67199000D02*
X137390000Y-67199000D01*
X139470000Y-67199000D02*
X141346000Y-67199000D01*
X135534000Y-67159000D02*
X137390000Y-67159000D01*
X139470000Y-67159000D02*
X141326000Y-67159000D01*
X135554000Y-67119000D02*
X137390000Y-67119000D01*
X139470000Y-67119000D02*
X141306000Y-67119000D01*
X135574000Y-67079000D02*
X137390000Y-67079000D01*
X139470000Y-67079000D02*
X141286000Y-67079000D01*
X135596000Y-67039000D02*
X137390000Y-67039000D01*
X139470000Y-67039000D02*
X141264000Y-67039000D01*
X135618000Y-66999000D02*
X137390000Y-66999000D01*
X139470000Y-66999000D02*
X141242000Y-66999000D01*
X135640000Y-66959000D02*
X137390000Y-66959000D01*
X139470000Y-66959000D02*
X141220000Y-66959000D01*
X135664000Y-66919000D02*
X137390000Y-66919000D01*
X139470000Y-66919000D02*
X141196000Y-66919000D01*
X135688000Y-66879000D02*
X137390000Y-66879000D01*
X139470000Y-66879000D02*
X141172000Y-66879000D01*
X135714000Y-66839000D02*
X137390000Y-66839000D01*
X139470000Y-66839000D02*
X141146000Y-66839000D01*
X135740000Y-66799000D02*
X137390000Y-66799000D01*
X139470000Y-66799000D02*
X141120000Y-66799000D01*
X135766000Y-66759000D02*
X137390000Y-66759000D01*
X139470000Y-66759000D02*
X141094000Y-66759000D01*
X135794000Y-66719000D02*
X137390000Y-66719000D01*
X139470000Y-66719000D02*
X141066000Y-66719000D01*
X135823000Y-66679000D02*
X137390000Y-66679000D01*
X139470000Y-66679000D02*
X141037000Y-66679000D01*
X135852000Y-66639000D02*
X137390000Y-66639000D01*
X139470000Y-66639000D02*
X141008000Y-66639000D01*
X135882000Y-66599000D02*
X137390000Y-66599000D01*
X139470000Y-66599000D02*
X140978000Y-66599000D01*
X135914000Y-66559000D02*
X137390000Y-66559000D01*
X139470000Y-66559000D02*
X140946000Y-66559000D01*
X135946000Y-66519000D02*
X137390000Y-66519000D01*
X139470000Y-66519000D02*
X140914000Y-66519000D01*
X135980000Y-66479000D02*
X137390000Y-66479000D01*
X139470000Y-66479000D02*
X140880000Y-66479000D01*
X136014000Y-66439000D02*
X137390000Y-66439000D01*
X139470000Y-66439000D02*
X140846000Y-66439000D01*
X136050000Y-66399000D02*
X137390000Y-66399000D01*
X139470000Y-66399000D02*
X140810000Y-66399000D01*
X136087000Y-66359000D02*
X137390000Y-66359000D01*
X139470000Y-66359000D02*
X140773000Y-66359000D01*
X136125000Y-66319000D02*
X137390000Y-66319000D01*
X139470000Y-66319000D02*
X140735000Y-66319000D01*
X136165000Y-66279000D02*
X140695000Y-66279000D01*
X136206000Y-66239000D02*
X140654000Y-66239000D01*
X136248000Y-66199000D02*
X140612000Y-66199000D01*
X136293000Y-66159000D02*
X140567000Y-66159000D01*
X136338000Y-66119000D02*
X140522000Y-66119000D01*
X136386000Y-66079000D02*
X140474000Y-66079000D01*
X136435000Y-66039000D02*
X140425000Y-66039000D01*
X136486000Y-65999000D02*
X140374000Y-65999000D01*
X136540000Y-65959000D02*
X140320000Y-65959000D01*
X136596000Y-65919000D02*
X140264000Y-65919000D01*
X136654000Y-65879000D02*
X140206000Y-65879000D01*
X136716000Y-65839000D02*
X140144000Y-65839000D01*
X136780000Y-65799000D02*
X140080000Y-65799000D01*
X136849000Y-65759000D02*
X140011000Y-65759000D01*
X136921000Y-65719000D02*
X139939000Y-65719000D01*
X136998000Y-65679000D02*
X139862000Y-65679000D01*
X137080000Y-65639000D02*
X139780000Y-65639000D01*
X137168000Y-65599000D02*
X139692000Y-65599000D01*
X137265000Y-65559000D02*
X139595000Y-65559000D01*
X137371000Y-65519000D02*
X139489000Y-65519000D01*
X137490000Y-65479000D02*
X139370000Y-65479000D01*
X137628000Y-65439000D02*
X139232000Y-65439000D01*
X137797000Y-65399000D02*
X139063000Y-65399000D01*
X138028000Y-65359000D02*
X138832000Y-65359000D01*
X136591000Y-72100241D02*
X136591000Y-71470241D01*
X136276000Y-71785241D02*
X136906000Y-71785241D01*
G04 #@! TO.C,D1*
X133550000Y-70940000D02*
X130610000Y-70940000D01*
X130610000Y-70940000D02*
X130610000Y-76380000D01*
X130610000Y-76380000D02*
X133550000Y-76380000D01*
X133550000Y-76380000D02*
X133550000Y-70940000D01*
X132080000Y-69920000D02*
X132080000Y-70940000D01*
X132080000Y-77400000D02*
X132080000Y-76380000D01*
X133550000Y-71840000D02*
X130610000Y-71840000D01*
X133550000Y-71960000D02*
X130610000Y-71960000D01*
X133550000Y-71720000D02*
X130610000Y-71720000D01*
G04 #@! TO.C,C2*
X107800000Y-75030000D02*
X100560000Y-75030000D01*
X107800000Y-72290000D02*
X100560000Y-72290000D01*
X107800000Y-75030000D02*
X107800000Y-72290000D01*
X100560000Y-75030000D02*
X100560000Y-72290000D01*
G04 #@! TO.C,C3*
X100560000Y-77570000D02*
X100560000Y-74830000D01*
X107800000Y-77570000D02*
X107800000Y-74830000D01*
X107800000Y-74830000D02*
X100560000Y-74830000D01*
X107800000Y-77570000D02*
X100560000Y-77570000D01*
G04 #@! TO.C,C4*
X107800000Y-80110000D02*
X100560000Y-80110000D01*
X107800000Y-77370000D02*
X100560000Y-77370000D01*
X107800000Y-80110000D02*
X107800000Y-77370000D01*
X100560000Y-80110000D02*
X100560000Y-77370000D01*
G04 #@! TO.C,J1*
X95190000Y-80070000D02*
X97850000Y-80070000D01*
X95190000Y-77470000D02*
X95190000Y-80070000D01*
X97850000Y-77470000D02*
X97850000Y-80070000D01*
X95190000Y-77470000D02*
X97850000Y-77470000D01*
X95190000Y-76200000D02*
X95190000Y-74870000D01*
X95190000Y-74870000D02*
X96520000Y-74870000D01*
G04 #@! TO.C,J2*
X137100000Y-74870000D02*
X138430000Y-74870000D01*
X137100000Y-76200000D02*
X137100000Y-74870000D01*
X137100000Y-77470000D02*
X139760000Y-77470000D01*
X139760000Y-77470000D02*
X139760000Y-80070000D01*
X137100000Y-77470000D02*
X137100000Y-80070000D01*
X137100000Y-80070000D02*
X139760000Y-80070000D01*
G04 #@! TO.C,U1*
D10*
X114808095Y-68242380D02*
X114808095Y-69051904D01*
X114855714Y-69147142D01*
X114903333Y-69194761D01*
X114998571Y-69242380D01*
X115189047Y-69242380D01*
X115284285Y-69194761D01*
X115331904Y-69147142D01*
X115379523Y-69051904D01*
X115379523Y-68242380D01*
X116379523Y-69242380D02*
X115808095Y-69242380D01*
X116093809Y-69242380D02*
X116093809Y-68242380D01*
X115998571Y-68385238D01*
X115903333Y-68480476D01*
X115808095Y-68528095D01*
X112903333Y-81522380D02*
X112903333Y-80522380D01*
X113236666Y-81236666D01*
X113570000Y-80522380D01*
X113570000Y-81522380D01*
X113998571Y-81236666D02*
X114474761Y-81236666D01*
X113903333Y-81522380D02*
X114236666Y-80522380D01*
X114570000Y-81522380D01*
X114808095Y-80522380D02*
X115474761Y-81522380D01*
X115474761Y-80522380D02*
X114808095Y-81522380D01*
X115760476Y-80522380D02*
X116427142Y-80522380D01*
X115998571Y-81522380D01*
X116712857Y-80522380D02*
X117331904Y-80522380D01*
X116998571Y-80903333D01*
X117141428Y-80903333D01*
X117236666Y-80950952D01*
X117284285Y-80998571D01*
X117331904Y-81093809D01*
X117331904Y-81331904D01*
X117284285Y-81427142D01*
X117236666Y-81474761D01*
X117141428Y-81522380D01*
X116855714Y-81522380D01*
X116760476Y-81474761D01*
X116712857Y-81427142D01*
X118189047Y-80855714D02*
X118189047Y-81522380D01*
X117950952Y-80474761D02*
X117712857Y-81189047D01*
X118331904Y-81189047D01*
G04 #@! TO.C,L1*
X123023333Y-81732380D02*
X122547142Y-81732380D01*
X122547142Y-80732380D01*
X123880476Y-81732380D02*
X123309047Y-81732380D01*
X123594761Y-81732380D02*
X123594761Y-80732380D01*
X123499523Y-80875238D01*
X123404285Y-80970476D01*
X123309047Y-81018095D01*
X125833333Y-81732380D02*
X125261904Y-81732380D01*
X125547619Y-81732380D02*
X125547619Y-80732380D01*
X125452380Y-80875238D01*
X125357142Y-80970476D01*
X125261904Y-81018095D01*
X126404761Y-81160952D02*
X126309523Y-81113333D01*
X126261904Y-81065714D01*
X126214285Y-80970476D01*
X126214285Y-80922857D01*
X126261904Y-80827619D01*
X126309523Y-80780000D01*
X126404761Y-80732380D01*
X126595238Y-80732380D01*
X126690476Y-80780000D01*
X126738095Y-80827619D01*
X126785714Y-80922857D01*
X126785714Y-80970476D01*
X126738095Y-81065714D01*
X126690476Y-81113333D01*
X126595238Y-81160952D01*
X126404761Y-81160952D01*
X126309523Y-81208571D01*
X126261904Y-81256190D01*
X126214285Y-81351428D01*
X126214285Y-81541904D01*
X126261904Y-81637142D01*
X126309523Y-81684761D01*
X126404761Y-81732380D01*
X126595238Y-81732380D01*
X126690476Y-81684761D01*
X126738095Y-81637142D01*
X126785714Y-81541904D01*
X126785714Y-81351428D01*
X126738095Y-81256190D01*
X126690476Y-81208571D01*
X126595238Y-81160952D01*
X127642857Y-81065714D02*
X127642857Y-81732380D01*
X127214285Y-81065714D02*
X127214285Y-81589523D01*
X127261904Y-81684761D01*
X127357142Y-81732380D01*
X127500000Y-81732380D01*
X127595238Y-81684761D01*
X127642857Y-81637142D01*
X128119047Y-81732380D02*
X128119047Y-80732380D01*
X128119047Y-81208571D02*
X128690476Y-81208571D01*
X128690476Y-81732380D02*
X128690476Y-80732380D01*
G04 #@! TO.C,C1*
X121642142Y-71286666D02*
X121689761Y-71334285D01*
X121737380Y-71477142D01*
X121737380Y-71572380D01*
X121689761Y-71715238D01*
X121594523Y-71810476D01*
X121499285Y-71858095D01*
X121308809Y-71905714D01*
X121165952Y-71905714D01*
X120975476Y-71858095D01*
X120880238Y-71810476D01*
X120785000Y-71715238D01*
X120737380Y-71572380D01*
X120737380Y-71477142D01*
X120785000Y-71334285D01*
X120832619Y-71286666D01*
X121737380Y-70334285D02*
X121737380Y-70905714D01*
X121737380Y-70620000D02*
X120737380Y-70620000D01*
X120880238Y-70715238D01*
X120975476Y-70810476D01*
X121023095Y-70905714D01*
X120737380Y-69000476D02*
X120737380Y-68381428D01*
X121118333Y-68714761D01*
X121118333Y-68571904D01*
X121165952Y-68476666D01*
X121213571Y-68429047D01*
X121308809Y-68381428D01*
X121546904Y-68381428D01*
X121642142Y-68429047D01*
X121689761Y-68476666D01*
X121737380Y-68571904D01*
X121737380Y-68857619D01*
X121689761Y-68952857D01*
X121642142Y-69000476D01*
X120737380Y-68048095D02*
X120737380Y-67429047D01*
X121118333Y-67762380D01*
X121118333Y-67619523D01*
X121165952Y-67524285D01*
X121213571Y-67476666D01*
X121308809Y-67429047D01*
X121546904Y-67429047D01*
X121642142Y-67476666D01*
X121689761Y-67524285D01*
X121737380Y-67619523D01*
X121737380Y-67905238D01*
X121689761Y-68000476D01*
X121642142Y-68048095D01*
X121070714Y-66571904D02*
X121737380Y-66571904D01*
X121070714Y-67000476D02*
X121594523Y-67000476D01*
X121689761Y-66952857D01*
X121737380Y-66857619D01*
X121737380Y-66714761D01*
X121689761Y-66619523D01*
X121642142Y-66571904D01*
X121213571Y-65762380D02*
X121213571Y-66095714D01*
X121737380Y-66095714D02*
X120737380Y-66095714D01*
X120737380Y-65619523D01*
G04 #@! TO.C,C5*
X133072142Y-66206666D02*
X133119761Y-66254285D01*
X133167380Y-66397142D01*
X133167380Y-66492380D01*
X133119761Y-66635238D01*
X133024523Y-66730476D01*
X132929285Y-66778095D01*
X132738809Y-66825714D01*
X132595952Y-66825714D01*
X132405476Y-66778095D01*
X132310238Y-66730476D01*
X132215000Y-66635238D01*
X132167380Y-66492380D01*
X132167380Y-66397142D01*
X132215000Y-66254285D01*
X132262619Y-66206666D01*
X132167380Y-65301904D02*
X132167380Y-65778095D01*
X132643571Y-65825714D01*
X132595952Y-65778095D01*
X132548333Y-65682857D01*
X132548333Y-65444761D01*
X132595952Y-65349523D01*
X132643571Y-65301904D01*
X132738809Y-65254285D01*
X132976904Y-65254285D01*
X133072142Y-65301904D01*
X133119761Y-65349523D01*
X133167380Y-65444761D01*
X133167380Y-65682857D01*
X133119761Y-65778095D01*
X133072142Y-65825714D01*
X133881880Y-68619476D02*
X133881880Y-68000428D01*
X134262833Y-68333761D01*
X134262833Y-68190904D01*
X134310452Y-68095666D01*
X134358071Y-68048047D01*
X134453309Y-68000428D01*
X134691404Y-68000428D01*
X134786642Y-68048047D01*
X134834261Y-68095666D01*
X134881880Y-68190904D01*
X134881880Y-68476619D01*
X134834261Y-68571857D01*
X134786642Y-68619476D01*
X133881880Y-67667095D02*
X133881880Y-67048047D01*
X134262833Y-67381380D01*
X134262833Y-67238523D01*
X134310452Y-67143285D01*
X134358071Y-67095666D01*
X134453309Y-67048047D01*
X134691404Y-67048047D01*
X134786642Y-67095666D01*
X134834261Y-67143285D01*
X134881880Y-67238523D01*
X134881880Y-67524238D01*
X134834261Y-67619476D01*
X134786642Y-67667095D01*
X134215214Y-66190904D02*
X134881880Y-66190904D01*
X134215214Y-66619476D02*
X134739023Y-66619476D01*
X134834261Y-66571857D01*
X134881880Y-66476619D01*
X134881880Y-66333761D01*
X134834261Y-66238523D01*
X134786642Y-66190904D01*
X134358071Y-65381380D02*
X134358071Y-65714714D01*
X134881880Y-65714714D02*
X133881880Y-65714714D01*
X133881880Y-65238523D01*
G04 #@! TO.C,D1*
X135072380Y-79478095D02*
X134072380Y-79478095D01*
X134072380Y-79240000D01*
X134120000Y-79097142D01*
X134215238Y-79001904D01*
X134310476Y-78954285D01*
X134500952Y-78906666D01*
X134643809Y-78906666D01*
X134834285Y-78954285D01*
X134929523Y-79001904D01*
X135024761Y-79097142D01*
X135072380Y-79240000D01*
X135072380Y-79478095D01*
X135072380Y-77954285D02*
X135072380Y-78525714D01*
X135072380Y-78240000D02*
X134072380Y-78240000D01*
X134215238Y-78335238D01*
X134310476Y-78430476D01*
X134358095Y-78525714D01*
X135072380Y-75802857D02*
X135072380Y-76374285D01*
X135072380Y-76088571D02*
X134072380Y-76088571D01*
X134215238Y-76183809D01*
X134310476Y-76279047D01*
X134358095Y-76374285D01*
X135072380Y-75374285D02*
X134072380Y-75374285D01*
X135072380Y-74802857D01*
X134072380Y-74802857D01*
X134072380Y-73850476D02*
X134072380Y-74326666D01*
X134548571Y-74374285D01*
X134500952Y-74326666D01*
X134453333Y-74231428D01*
X134453333Y-73993333D01*
X134500952Y-73898095D01*
X134548571Y-73850476D01*
X134643809Y-73802857D01*
X134881904Y-73802857D01*
X134977142Y-73850476D01*
X135024761Y-73898095D01*
X135072380Y-73993333D01*
X135072380Y-74231428D01*
X135024761Y-74326666D01*
X134977142Y-74374285D01*
X134500952Y-73231428D02*
X134453333Y-73326666D01*
X134405714Y-73374285D01*
X134310476Y-73421904D01*
X134262857Y-73421904D01*
X134167619Y-73374285D01*
X134120000Y-73326666D01*
X134072380Y-73231428D01*
X134072380Y-73040952D01*
X134120000Y-72945714D01*
X134167619Y-72898095D01*
X134262857Y-72850476D01*
X134310476Y-72850476D01*
X134405714Y-72898095D01*
X134453333Y-72945714D01*
X134500952Y-73040952D01*
X134500952Y-73231428D01*
X134548571Y-73326666D01*
X134596190Y-73374285D01*
X134691428Y-73421904D01*
X134881904Y-73421904D01*
X134977142Y-73374285D01*
X135024761Y-73326666D01*
X135072380Y-73231428D01*
X135072380Y-73040952D01*
X135024761Y-72945714D01*
X134977142Y-72898095D01*
X134881904Y-72850476D01*
X134691428Y-72850476D01*
X134596190Y-72898095D01*
X134548571Y-72945714D01*
X134500952Y-73040952D01*
X135072380Y-71898095D02*
X135072380Y-72469523D01*
X135072380Y-72183809D02*
X134072380Y-72183809D01*
X134215238Y-72279047D01*
X134310476Y-72374285D01*
X134358095Y-72469523D01*
X134072380Y-71564761D02*
X134072380Y-70898095D01*
X135072380Y-71326666D01*
X131262380Y-62491904D02*
X130262380Y-62491904D01*
X131262380Y-61920476D02*
X130690952Y-62349047D01*
X130262380Y-61920476D02*
X130833809Y-62491904D01*
X131262380Y-64396904D02*
X130262380Y-64396904D01*
X131262380Y-63825476D02*
X130690952Y-64254047D01*
X130262380Y-63825476D02*
X130833809Y-64396904D01*
G04 #@! TO.C,C2*
X100052142Y-73826666D02*
X100099761Y-73874285D01*
X100147380Y-74017142D01*
X100147380Y-74112380D01*
X100099761Y-74255238D01*
X100004523Y-74350476D01*
X99909285Y-74398095D01*
X99718809Y-74445714D01*
X99575952Y-74445714D01*
X99385476Y-74398095D01*
X99290238Y-74350476D01*
X99195000Y-74255238D01*
X99147380Y-74112380D01*
X99147380Y-74017142D01*
X99195000Y-73874285D01*
X99242619Y-73826666D01*
X99242619Y-73445714D02*
X99195000Y-73398095D01*
X99147380Y-73302857D01*
X99147380Y-73064761D01*
X99195000Y-72969523D01*
X99242619Y-72921904D01*
X99337857Y-72874285D01*
X99433095Y-72874285D01*
X99575952Y-72921904D01*
X100147380Y-73493333D01*
X100147380Y-72874285D01*
X102497142Y-70572380D02*
X102592380Y-70572380D01*
X102687619Y-70620000D01*
X102735238Y-70667619D01*
X102782857Y-70762857D01*
X102830476Y-70953333D01*
X102830476Y-71191428D01*
X102782857Y-71381904D01*
X102735238Y-71477142D01*
X102687619Y-71524761D01*
X102592380Y-71572380D01*
X102497142Y-71572380D01*
X102401904Y-71524761D01*
X102354285Y-71477142D01*
X102306666Y-71381904D01*
X102259047Y-71191428D01*
X102259047Y-70953333D01*
X102306666Y-70762857D01*
X102354285Y-70667619D01*
X102401904Y-70620000D01*
X102497142Y-70572380D01*
X103259047Y-71477142D02*
X103306666Y-71524761D01*
X103259047Y-71572380D01*
X103211428Y-71524761D01*
X103259047Y-71477142D01*
X103259047Y-71572380D01*
X104259047Y-71572380D02*
X103687619Y-71572380D01*
X103973333Y-71572380D02*
X103973333Y-70572380D01*
X103878095Y-70715238D01*
X103782857Y-70810476D01*
X103687619Y-70858095D01*
X105116190Y-70905714D02*
X105116190Y-71572380D01*
X104687619Y-70905714D02*
X104687619Y-71429523D01*
X104735238Y-71524761D01*
X104830476Y-71572380D01*
X104973333Y-71572380D01*
X105068571Y-71524761D01*
X105116190Y-71477142D01*
X105925714Y-71048571D02*
X105592380Y-71048571D01*
X105592380Y-71572380D02*
X105592380Y-70572380D01*
X106068571Y-70572380D01*
G04 #@! TO.C,C3*
X100052142Y-76366666D02*
X100099761Y-76414285D01*
X100147380Y-76557142D01*
X100147380Y-76652380D01*
X100099761Y-76795238D01*
X100004523Y-76890476D01*
X99909285Y-76938095D01*
X99718809Y-76985714D01*
X99575952Y-76985714D01*
X99385476Y-76938095D01*
X99290238Y-76890476D01*
X99195000Y-76795238D01*
X99147380Y-76652380D01*
X99147380Y-76557142D01*
X99195000Y-76414285D01*
X99242619Y-76366666D01*
X99147380Y-76033333D02*
X99147380Y-75414285D01*
X99528333Y-75747619D01*
X99528333Y-75604761D01*
X99575952Y-75509523D01*
X99623571Y-75461904D01*
X99718809Y-75414285D01*
X99956904Y-75414285D01*
X100052142Y-75461904D01*
X100099761Y-75509523D01*
X100147380Y-75604761D01*
X100147380Y-75890476D01*
X100099761Y-75985714D01*
X100052142Y-76033333D01*
X109672380Y-77271428D02*
X109672380Y-77842857D01*
X109672380Y-77557142D02*
X108672380Y-77557142D01*
X108815238Y-77652380D01*
X108910476Y-77747619D01*
X108958095Y-77842857D01*
X108672380Y-76652380D02*
X108672380Y-76557142D01*
X108720000Y-76461904D01*
X108767619Y-76414285D01*
X108862857Y-76366666D01*
X109053333Y-76319047D01*
X109291428Y-76319047D01*
X109481904Y-76366666D01*
X109577142Y-76414285D01*
X109624761Y-76461904D01*
X109672380Y-76557142D01*
X109672380Y-76652380D01*
X109624761Y-76747619D01*
X109577142Y-76795238D01*
X109481904Y-76842857D01*
X109291428Y-76890476D01*
X109053333Y-76890476D01*
X108862857Y-76842857D01*
X108767619Y-76795238D01*
X108720000Y-76747619D01*
X108672380Y-76652380D01*
X109005714Y-75890476D02*
X109672380Y-75890476D01*
X109100952Y-75890476D02*
X109053333Y-75842857D01*
X109005714Y-75747619D01*
X109005714Y-75604761D01*
X109053333Y-75509523D01*
X109148571Y-75461904D01*
X109672380Y-75461904D01*
X109148571Y-74652380D02*
X109148571Y-74985714D01*
X109672380Y-74985714D02*
X108672380Y-74985714D01*
X108672380Y-74509523D01*
G04 #@! TO.C,C4*
X100052142Y-78906666D02*
X100099761Y-78954285D01*
X100147380Y-79097142D01*
X100147380Y-79192380D01*
X100099761Y-79335238D01*
X100004523Y-79430476D01*
X99909285Y-79478095D01*
X99718809Y-79525714D01*
X99575952Y-79525714D01*
X99385476Y-79478095D01*
X99290238Y-79430476D01*
X99195000Y-79335238D01*
X99147380Y-79192380D01*
X99147380Y-79097142D01*
X99195000Y-78954285D01*
X99242619Y-78906666D01*
X99480714Y-78049523D02*
X100147380Y-78049523D01*
X99099761Y-78287619D02*
X99814047Y-78525714D01*
X99814047Y-77906666D01*
X103544761Y-81732380D02*
X102973333Y-81732380D01*
X103259047Y-81732380D02*
X103259047Y-80732380D01*
X103163809Y-80875238D01*
X103068571Y-80970476D01*
X102973333Y-81018095D01*
X103973333Y-81065714D02*
X103973333Y-81732380D01*
X103973333Y-81160952D02*
X104020952Y-81113333D01*
X104116190Y-81065714D01*
X104259047Y-81065714D01*
X104354285Y-81113333D01*
X104401904Y-81208571D01*
X104401904Y-81732380D01*
X105211428Y-81208571D02*
X104878095Y-81208571D01*
X104878095Y-81732380D02*
X104878095Y-80732380D01*
X105354285Y-80732380D01*
G04 #@! TO.C,J1*
X96186666Y-73112380D02*
X96186666Y-73826666D01*
X96139047Y-73969523D01*
X96043809Y-74064761D01*
X95900952Y-74112380D01*
X95805714Y-74112380D01*
X97186666Y-74112380D02*
X96615238Y-74112380D01*
X96900952Y-74112380D02*
X96900952Y-73112380D01*
X96805714Y-73255238D01*
X96710476Y-73350476D01*
X96615238Y-73398095D01*
X95496190Y-80732380D02*
X95829523Y-81732380D01*
X96162857Y-80732380D01*
X96496190Y-81732380D02*
X96496190Y-81065714D01*
X96496190Y-80732380D02*
X96448571Y-80780000D01*
X96496190Y-80827619D01*
X96543809Y-80780000D01*
X96496190Y-80732380D01*
X96496190Y-80827619D01*
X96972380Y-81065714D02*
X96972380Y-81732380D01*
X96972380Y-81160952D02*
X97020000Y-81113333D01*
X97115238Y-81065714D01*
X97258095Y-81065714D01*
X97353333Y-81113333D01*
X97400952Y-81208571D01*
X97400952Y-81732380D01*
G04 #@! TO.C,J2*
X138096666Y-73322380D02*
X138096666Y-74036666D01*
X138049047Y-74179523D01*
X137953809Y-74274761D01*
X137810952Y-74322380D01*
X137715714Y-74322380D01*
X138525238Y-73417619D02*
X138572857Y-73370000D01*
X138668095Y-73322380D01*
X138906190Y-73322380D01*
X139001428Y-73370000D01*
X139049047Y-73417619D01*
X139096666Y-73512857D01*
X139096666Y-73608095D01*
X139049047Y-73750952D01*
X138477619Y-74322380D01*
X139096666Y-74322380D01*
X136906190Y-80522380D02*
X137239523Y-81522380D01*
X137572857Y-80522380D01*
X138049047Y-81522380D02*
X137953809Y-81474761D01*
X137906190Y-81427142D01*
X137858571Y-81331904D01*
X137858571Y-81046190D01*
X137906190Y-80950952D01*
X137953809Y-80903333D01*
X138049047Y-80855714D01*
X138191904Y-80855714D01*
X138287142Y-80903333D01*
X138334761Y-80950952D01*
X138382380Y-81046190D01*
X138382380Y-81331904D01*
X138334761Y-81427142D01*
X138287142Y-81474761D01*
X138191904Y-81522380D01*
X138049047Y-81522380D01*
X139239523Y-80855714D02*
X139239523Y-81522380D01*
X138810952Y-80855714D02*
X138810952Y-81379523D01*
X138858571Y-81474761D01*
X138953809Y-81522380D01*
X139096666Y-81522380D01*
X139191904Y-81474761D01*
X139239523Y-81427142D01*
X139572857Y-80855714D02*
X139953809Y-80855714D01*
X139715714Y-80522380D02*
X139715714Y-81379523D01*
X139763333Y-81474761D01*
X139858571Y-81522380D01*
X139953809Y-81522380D01*
G04 #@! TD*
M02*
